Valentine's.Day.2010.1080p.BluRay.DTS.mkv
*****************************************

TiTLE......  Valentine's Day
YEAR.......  2010
GENRE......  Comedy | Romance  
iMDB RATE..  User Rating: 5.7/10 (9,127 votes)
iMDB URL...  http://www.imdb.com/title/tt0817230/ 
*************************************************

Video
Duration                         : 2h 4mn
Overall bit rate                 : 7 715 Kbps
Width                            : 1 920 pixels
Height                           : 1 036 pixels
Display aspect ratio             : 1.857
Frame rate                       : 23.976 fps
Stream size                      : 5.26 GiB (78%)

Audio
Format                           : DTS
Format/Info                      : Digital Theater Systems
Bit rate                         : 1 510 Kbps
Channel(s)                       : 6 channels
Channel positions                : Front: L C R, Surround: L R, LFE
Sampling rate                    : 48.0 KHz
Resolution                       : 24 bits
Stream size                      : 1.31 GiB (20%)
Language                         : English

Subtitles: English, Brazilian, French
*************************************
